<mxfile host="app.diagrams.net" modified="2023-09-18T15:27:17.036Z" agent="Mozilla/5.0 (Windows NT 10.0; Win64; x64) AppleWebKit/537.36 (KHTML, like Gecko) Chrome/111.0.0.0 Safari/537.36" etag="KkQ2k-XWBxyFBa_H5Kpg" version="21.7.5" type="device">
  <diagram name="Página-1" id="7ZyEmV64bbNxoQyVU69w">
    <mxGraphModel dx="1434" dy="806" grid="1" gridSize="10" guides="1" tooltips="1" connect="1" arrows="1" fold="1" page="1" pageScale="1" pageWidth="827" pageHeight="1169" math="0" shadow="0">
      <root>
        <mxCell id="0" />
        <mxCell id="1" parent="0" />
        <mxCell id="_x8QHs6AfEQHE_QRNiPx-1" value="" style="edgeStyle=orthogonalEdgeStyle;rounded=0;orthogonalLoop=1;jettySize=auto;html=1;" edge="1" parent="1" source="_x8QHs6AfEQHE_QRNiPx-2" target="_x8QHs6AfEQHE_QRNiPx-4">
          <mxGeometry relative="1" as="geometry" />
        </mxCell>
        <mxCell id="_x8QHs6AfEQHE_QRNiPx-2" value="Inicia sesión" style="whiteSpace=wrap;html=1;aspect=fixed;" vertex="1" parent="1">
          <mxGeometry x="170" y="110" width="80" height="80" as="geometry" />
        </mxCell>
        <mxCell id="_x8QHs6AfEQHE_QRNiPx-3" value="" style="edgeStyle=orthogonalEdgeStyle;rounded=0;orthogonalLoop=1;jettySize=auto;html=1;" edge="1" parent="1" source="_x8QHs6AfEQHE_QRNiPx-4" target="_x8QHs6AfEQHE_QRNiPx-6">
          <mxGeometry relative="1" as="geometry" />
        </mxCell>
        <mxCell id="_x8QHs6AfEQHE_QRNiPx-4" value="Ingresa voto" style="whiteSpace=wrap;html=1;aspect=fixed;" vertex="1" parent="1">
          <mxGeometry x="310" y="110" width="80" height="80" as="geometry" />
        </mxCell>
        <mxCell id="_x8QHs6AfEQHE_QRNiPx-5" value="" style="edgeStyle=orthogonalEdgeStyle;rounded=0;orthogonalLoop=1;jettySize=auto;html=1;" edge="1" parent="1" source="_x8QHs6AfEQHE_QRNiPx-6" target="_x8QHs6AfEQHE_QRNiPx-8">
          <mxGeometry relative="1" as="geometry" />
        </mxCell>
        <mxCell id="_x8QHs6AfEQHE_QRNiPx-6" value="Guarda voto" style="whiteSpace=wrap;html=1;aspect=fixed;" vertex="1" parent="1">
          <mxGeometry x="454" y="110" width="80" height="80" as="geometry" />
        </mxCell>
        <mxCell id="_x8QHs6AfEQHE_QRNiPx-7" style="edgeStyle=orthogonalEdgeStyle;rounded=0;orthogonalLoop=1;jettySize=auto;html=1;entryX=1;entryY=0.5;entryDx=0;entryDy=0;" edge="1" parent="1" source="_x8QHs6AfEQHE_QRNiPx-8" target="_x8QHs6AfEQHE_QRNiPx-10">
          <mxGeometry relative="1" as="geometry" />
        </mxCell>
        <mxCell id="_x8QHs6AfEQHE_QRNiPx-8" value="Registra el voto" style="whiteSpace=wrap;html=1;aspect=fixed;" vertex="1" parent="1">
          <mxGeometry x="600" y="110" width="80" height="80" as="geometry" />
        </mxCell>
        <mxCell id="_x8QHs6AfEQHE_QRNiPx-9" value="" style="edgeStyle=orthogonalEdgeStyle;rounded=0;orthogonalLoop=1;jettySize=auto;html=1;" edge="1" parent="1" source="_x8QHs6AfEQHE_QRNiPx-10" target="_x8QHs6AfEQHE_QRNiPx-12">
          <mxGeometry relative="1" as="geometry" />
        </mxCell>
        <mxCell id="_x8QHs6AfEQHE_QRNiPx-10" value="Calcula el porcentaje de los votos" style="whiteSpace=wrap;html=1;aspect=fixed;" vertex="1" parent="1">
          <mxGeometry x="520" y="260" width="80" height="80" as="geometry" />
        </mxCell>
        <mxCell id="_x8QHs6AfEQHE_QRNiPx-11" value="" style="edgeStyle=orthogonalEdgeStyle;rounded=0;orthogonalLoop=1;jettySize=auto;html=1;" edge="1" parent="1" source="_x8QHs6AfEQHE_QRNiPx-12" target="_x8QHs6AfEQHE_QRNiPx-14">
          <mxGeometry relative="1" as="geometry" />
        </mxCell>
        <mxCell id="_x8QHs6AfEQHE_QRNiPx-12" value="Envia un certificado del voto" style="whiteSpace=wrap;html=1;aspect=fixed;" vertex="1" parent="1">
          <mxGeometry x="380" y="260" width="80" height="80" as="geometry" />
        </mxCell>
        <mxCell id="_x8QHs6AfEQHE_QRNiPx-13" style="edgeStyle=orthogonalEdgeStyle;rounded=0;orthogonalLoop=1;jettySize=auto;html=1;entryX=0.5;entryY=1;entryDx=0;entryDy=0;" edge="1" parent="1" source="_x8QHs6AfEQHE_QRNiPx-14" target="_x8QHs6AfEQHE_QRNiPx-2">
          <mxGeometry relative="1" as="geometry">
            <Array as="points">
              <mxPoint x="210" y="300" />
            </Array>
          </mxGeometry>
        </mxCell>
        <mxCell id="_x8QHs6AfEQHE_QRNiPx-14" value="Espera un nuevo votante" style="whiteSpace=wrap;html=1;aspect=fixed;" vertex="1" parent="1">
          <mxGeometry x="240" y="260" width="80" height="80" as="geometry" />
        </mxCell>
      </root>
    </mxGraphModel>
  </diagram>
</mxfile>
